<svg width="380" height="88" viewBox="0 0 380 88" fill="none" xmlns="http://www.w3.org/2000/svg">
  <rect x="4" y="4" width="80" height="80" rx="22" fill="currentColor" fill-opacity="0.12"/>
  <rect x="16" y="16" width="56" height="56" rx="16" fill="currentColor" fill-opacity="0.22"/>
  <path d="M25 50.5C25 41.9396 31.9396 35 40.5 35H47.5C56.0604 35 63 41.9396 63 50.5V53.5C63 55.433 61.433 57 59.5 57H28.5C26.567 57 25 55.433 25 53.5V50.5Z" fill="currentColor"/>
  <path d="M44 24C45.933 24 47.5 25.567 47.5 27.5V37H40.5V27.5C40.5 25.567 42.067 24 44 24Z" fill="currentColor"/>
  <circle cx="35" cy="43" r="3.5" fill="white"/>
  <circle cx="52" cy="43" r="3.5" fill="white"/>
  <text x="98" y="39" fill="currentColor" font-size="30" font-family="Roboto, Arial, sans-serif" font-weight="800" letter-spacing="0.5">MealCraft</text>
  <text x="98" y="62" fill="currentColor" fill-opacity="0.72" font-size="13" font-family="Roboto, Arial, sans-serif" font-weight="600" letter-spacing="1.6">DISCOVER • COOK • SHARE</text>
</svg>
